<?xml version="1.0" encoding="utf-8"?>
<!-- Generator: Adobe Illustrator 28.3.0, SVG Export Plug-In . SVG Version: 6.00 Build 0)  -->
<svg version="1.1" id="Layer_1" xmlns="http://www.w3.org/2000/svg" xmlns:xlink="http://www.w3.org/1999/xlink" x="0px" y="0px"
	 viewBox="0 0 128 92" style="enable-background:new 0 0 128 92;" xml:space="preserve">
<style type="text/css">
	.st0{fill:none;}
	.st1{fill:#35495E;}
	.st2{fill:#41B883;}
</style>
<path class="st0" d="M9.1,0l42.8,0.1l12.2,21l12.4-21L118.9,0L64.1,94.5L9.1,0z M118,0.5l-20.9,0l-33,56.7l-33-56.7l-21.2,0
	l54.2,92.5L118,0.5z M96.4,0.5L76.9,0.7L64,21.8L51.3,0.7L31.8,0.5l32.4,55.3L96.4,0.5z M31.4,0.4l19.7,0L64,21.8L76.9,0.4l19.7,0
	L64.1,56.7"/>
<path class="st1" d="M31.4,0.4l19.7,0L64,21.8L76.9,0.4l19.7,0L64.1,56.7L31.4,0.4z"/>
<path class="st2" d="M9.9,0.5l21.5-0.1l32.7,56.3L96.6,0.4l21.5,0l-54,92.7L9.9,0.5z"/>
</svg>
